<svg id="Capa_1" enable-background="new 0 0 512 512" height="512" viewBox="0 0 512 512" width="512" xmlns="http://www.w3.org/2000/svg"><path d="m79.454 250.08c-1.382 2.121-1.826 2.801-3.208 4.922 18.541 41.806 53.217 76.832 98.614 94.978 13.53 5.41 22.27 18.23 22.27 32.66v104.34c0 13.8 11.23 25.02 25.02 25.02h40.08c13.79 0 25.02-11.22 25.02-25.02v-104.34c0-14.26 8.73-27.3 21.74-32.45 45.338-17.951 80.36-52.881 99.141-95.185-1.382-2.122-1.825-2.802-3.207-4.925z" fill="#fed941"/><path d="m404.921 250.08h-162.73v261.92h20.04c13.79 0 25.02-11.22 25.02-25.02v-104.34c0-14.26 8.73-27.3 21.74-32.45 45.31-17.94 80.32-52.84 99.1-95.11h.01c.01-.03.02-.05.03-.08-1.38-2.12-1.82-2.8-3.21-4.92z" fill="#fcbe29"/><path d="m242.195 0c-.175 0-.356.001-.531.001-132.353.376-218.12 136.527-165.383 255.074h331.819c53.059-119.264-34.164-255.075-165.905-255.075z" fill="#ee3616"/><path d="m408.131 255c-.01.03-.02.05-.03.08h-165.91v-255.08c131.72 0 218.93 135.75 165.94 255z" fill="#cb0010"/><path d="m391.397 512c-33.131 0-60.086-26.951-60.086-60.079s26.955-60.079 60.086-60.079 60.085 26.951 60.085 60.079-26.954 60.079-60.085 60.079z" fill="#e0f4fe"/><path d="m391.401 391.84v120.16c33.13 0 60.08-26.95 60.08-60.08s-26.95-60.08-60.08-60.08z" fill="#bcdcfe"/></svg>