<svg id="Capa_1" enable-background="new 0 0 512 512" height="512" viewBox="0 0 512 512" width="512" xmlns="http://www.w3.org/2000/svg"><path d="m362.941 181.446c0-100.533-81.39-181.446-181.466-181.446-.175 0-.356.001-.531.001-100.293.285-180.946 81.117-180.944 181.448 0 20.167 3.297 39.916 9.683 58.626h343.577c6.384-18.71 9.681-38.458 9.681-58.629z"/><path d="m339.856 270.075h-316.768c19.685 35.061 51.074 63.929 91.056 79.908 13.528 5.407 22.269 18.225 22.269 32.655v104.344c0 13.795 11.224 25.018 25.019 25.018h40.076c13.795 0 25.019-11.223 25.019-25.018v-104.34c0-14.259 8.739-27.3 21.746-32.45 39.803-15.765 71.578-44.487 91.583-80.117z"/><path d="m330.677 391.842c-33.131 0-60.086 26.951-60.086 60.079s26.955 60.079 60.086 60.079 60.085-26.951 60.085-60.079-26.953-60.079-60.085-60.079z"/></svg>