<svg height="512pt" viewBox="0 0 512 512.00039" width="512pt" xmlns="http://www.w3.org/2000/svg"><path d="m491.957031 320.855469h-308.558593v-55.128907c0-16.636718-19.257813-26.0625-32.386719-15.703124l-143.398438 113.128906c-10.128906 7.988281-10.15625 23.386718 0 31.398437l143.398438 113.128907c13.082031 10.320312 32.386719.996093 32.386719-15.699219v-55.132813h308.558593c11.042969 0 19.996094-8.953125 19.996094-20v-75.992187c0-11.046875-8.953125-20-19.996094-20zm-20 75.996093h-308.558593c-11.042969 0-20 8.953126-20 19.996094v33.882813l-91.113282-71.878907 91.113282-71.878906v33.882813c0 11.046875 8.957031 20 20 20h308.558593zm0 0"/><path d="m20 191.144531h308.558594v55.128907c0 16.828124 19.40625 25.941406 32.382812 15.703124l143.402344-113.128906c10.128906-7.988281 10.15625-23.386718 0-31.398437l-143.402344-113.128907c-13.082031-10.320312-32.382812-.992187-32.382812 15.699219v55.132813h-308.558594c-11.046875 0-20 8.953125-20 20v75.992187c0 11.046875 8.953125 20 20 20zm19.996094-75.996093h308.558594c11.046874 0 20-8.953126 20-19.996094v-33.882813l91.113281 71.878907-91.113281 71.878906v-33.882813c0-11.042969-8.953126-20-20-20h-308.558594zm0 0"/></svg>